<mxfile host="app.diagrams.net" modified="2020-11-22T19:42:29.626Z" agent="5.0 (X11)" etag="MJljLb-lVnwShI-qzsXk" version="13.10.0" type="github">
  <diagram id="SDP4N_QY_eHQMUfkvBC7" name="Page-1">
    <mxGraphModel dx="1022" dy="695" grid="1" gridSize="10" guides="1" tooltips="1" connect="1" arrows="1" fold="1" page="1" pageScale="1" pageWidth="850" pageHeight="1100" math="0" shadow="0">
      <root>
        <mxCell id="0" />
        <mxCell id="1" parent="0" />
        <mxCell id="SU5YoAeH8gdzdMv7ccSX-1" value="&lt;u&gt;customer&lt;/u&gt;" style="rounded=0;whiteSpace=wrap;html=1;" parent="1" vertex="1">
          <mxGeometry x="40" y="40" width="110" height="30" as="geometry" />
        </mxCell>
        <mxCell id="SU5YoAeH8gdzdMv7ccSX-2" value="movie" style="rounded=0;whiteSpace=wrap;html=1;fontStyle=4" parent="1" vertex="1">
          <mxGeometry x="200" y="40" width="110" height="30" as="geometry" />
        </mxCell>
        <mxCell id="SU5YoAeH8gdzdMv7ccSX-3" value="Book Ticket" style="rounded=0;whiteSpace=wrap;html=1;fontStyle=4" parent="1" vertex="1">
          <mxGeometry x="360" y="40" width="110" height="30" as="geometry" />
        </mxCell>
        <mxCell id="SU5YoAeH8gdzdMv7ccSX-4" value="Make Payment" style="rounded=0;whiteSpace=wrap;html=1;fontStyle=4" parent="1" vertex="1">
          <mxGeometry x="520" y="40" width="110" height="30" as="geometry" />
        </mxCell>
        <mxCell id="SU5YoAeH8gdzdMv7ccSX-5" value="" style="endArrow=none;dashed=1;html=1;dashPattern=1 3;strokeWidth=2;exitX=0.345;exitY=1.067;exitDx=0;exitDy=0;exitPerimeter=0;" parent="1" edge="1">
          <mxGeometry width="50" height="50" relative="1" as="geometry">
            <mxPoint x="79.95000000000005" y="72.00999999999999" as="sourcePoint" />
            <mxPoint x="80" y="620" as="targetPoint" />
          </mxGeometry>
        </mxCell>
        <mxCell id="SU5YoAeH8gdzdMv7ccSX-6" value="" style="endArrow=none;dashed=1;html=1;dashPattern=1 3;strokeWidth=2;exitX=0.345;exitY=1.067;exitDx=0;exitDy=0;exitPerimeter=0;" parent="1" edge="1">
          <mxGeometry width="50" height="50" relative="1" as="geometry">
            <mxPoint x="560" y="69.99999999999999" as="sourcePoint" />
            <mxPoint x="560.05" y="617.99" as="targetPoint" />
          </mxGeometry>
        </mxCell>
        <mxCell id="SU5YoAeH8gdzdMv7ccSX-7" value="" style="endArrow=none;dashed=1;html=1;dashPattern=1 3;strokeWidth=2;exitX=0.345;exitY=1.067;exitDx=0;exitDy=0;exitPerimeter=0;" parent="1" edge="1">
          <mxGeometry width="50" height="50" relative="1" as="geometry">
            <mxPoint x="400.00000000000006" y="69.99999999999999" as="sourcePoint" />
            <mxPoint x="400.05" y="617.99" as="targetPoint" />
          </mxGeometry>
        </mxCell>
        <mxCell id="SU5YoAeH8gdzdMv7ccSX-8" value="" style="endArrow=none;dashed=1;html=1;dashPattern=1 3;strokeWidth=2;exitX=0.345;exitY=1.067;exitDx=0;exitDy=0;exitPerimeter=0;" parent="1" edge="1">
          <mxGeometry width="50" height="50" relative="1" as="geometry">
            <mxPoint x="241.00000000000006" y="70" as="sourcePoint" />
            <mxPoint x="241.05" y="617.99" as="targetPoint" />
          </mxGeometry>
        </mxCell>
        <mxCell id="SU5YoAeH8gdzdMv7ccSX-9" value="" style="rounded=0;whiteSpace=wrap;html=1;rotation=90;" parent="1" vertex="1">
          <mxGeometry x="58" y="137" width="42.5" height="15" as="geometry" />
        </mxCell>
        <mxCell id="SU5YoAeH8gdzdMv7ccSX-11" value="" style="endArrow=classic;html=1;entryX=0;entryY=0;entryDx=0;entryDy=0;" parent="1" edge="1" target="SU5YoAeH8gdzdMv7ccSX-9">
          <mxGeometry width="50" height="50" relative="1" as="geometry">
            <mxPoint x="80" y="86" as="sourcePoint" />
            <mxPoint x="80" y="112" as="targetPoint" />
            <Array as="points">
              <mxPoint x="130" y="86" />
              <mxPoint x="130" y="123" />
            </Array>
          </mxGeometry>
        </mxCell>
        <mxCell id="SU5YoAeH8gdzdMv7ccSX-13" value="" style="endArrow=classic;html=1;" parent="1" edge="1">
          <mxGeometry width="50" height="50" relative="1" as="geometry">
            <mxPoint x="80" y="195" as="sourcePoint" />
            <mxPoint x="230" y="195" as="targetPoint" />
          </mxGeometry>
        </mxCell>
        <mxCell id="SU5YoAeH8gdzdMv7ccSX-14" value="" style="rounded=0;whiteSpace=wrap;html=1;rotation=90;" parent="1" vertex="1">
          <mxGeometry x="220" y="199" width="42.5" height="15" as="geometry" />
        </mxCell>
        <mxCell id="SU5YoAeH8gdzdMv7ccSX-18" value="" style="endArrow=classic;html=1;" parent="1" edge="1">
          <mxGeometry width="50" height="50" relative="1" as="geometry">
            <mxPoint x="90" y="219" as="sourcePoint" />
            <mxPoint x="80" y="219" as="targetPoint" />
          </mxGeometry>
        </mxCell>
        <mxCell id="SU5YoAeH8gdzdMv7ccSX-19" value="" style="endArrow=none;dashed=1;html=1;dashPattern=1 3;strokeWidth=2;entryX=0.75;entryY=1;entryDx=0;entryDy=0;" parent="1" edge="1">
          <mxGeometry width="50" height="50" relative="1" as="geometry">
            <mxPoint x="80" y="220" as="sourcePoint" />
            <mxPoint x="233.75" y="217.125" as="targetPoint" />
          </mxGeometry>
        </mxCell>
        <mxCell id="SU5YoAeH8gdzdMv7ccSX-22" value="1:login()" style="text;html=1;strokeColor=none;fillColor=none;align=center;verticalAlign=middle;whiteSpace=wrap;rounded=0;" parent="1" vertex="1">
          <mxGeometry x="130" y="90" width="60" height="20" as="geometry" />
        </mxCell>
        <mxCell id="SU5YoAeH8gdzdMv7ccSX-24" value="" style="rounded=0;whiteSpace=wrap;html=1;rotation=90;" parent="1" vertex="1">
          <mxGeometry x="379" y="247" width="42.5" height="15" as="geometry" />
        </mxCell>
        <mxCell id="SU5YoAeH8gdzdMv7ccSX-25" value="" style="endArrow=classic;html=1;" parent="1" edge="1">
          <mxGeometry width="50" height="50" relative="1" as="geometry">
            <mxPoint x="80" y="250" as="sourcePoint" />
            <mxPoint x="390" y="250" as="targetPoint" />
          </mxGeometry>
        </mxCell>
        <mxCell id="SU5YoAeH8gdzdMv7ccSX-28" value="" style="endArrow=none;dashed=1;html=1;dashPattern=1 3;strokeWidth=2;entryX=0.75;entryY=1;entryDx=0;entryDy=0;" parent="1" target="SU5YoAeH8gdzdMv7ccSX-29" edge="1">
          <mxGeometry width="50" height="50" relative="1" as="geometry">
            <mxPoint x="86.25" y="320" as="sourcePoint" />
            <mxPoint x="396.25" y="320" as="targetPoint" />
          </mxGeometry>
        </mxCell>
        <mxCell id="SU5YoAeH8gdzdMv7ccSX-29" value="" style="rounded=0;whiteSpace=wrap;html=1;rotation=90;" parent="1" vertex="1">
          <mxGeometry x="539" y="301" width="42.5" height="15" as="geometry" />
        </mxCell>
        <mxCell id="SU5YoAeH8gdzdMv7ccSX-30" value="" style="endArrow=classic;html=1;" parent="1" edge="1">
          <mxGeometry width="50" height="50" relative="1" as="geometry">
            <mxPoint x="88.25" y="320" as="sourcePoint" />
            <mxPoint x="78.25" y="320" as="targetPoint" />
          </mxGeometry>
        </mxCell>
        <mxCell id="SU5YoAeH8gdzdMv7ccSX-31" value="" style="endArrow=classic;html=1;" parent="1" edge="1">
          <mxGeometry width="50" height="50" relative="1" as="geometry">
            <mxPoint x="80" y="300" as="sourcePoint" />
            <mxPoint x="550" y="300" as="targetPoint" />
          </mxGeometry>
        </mxCell>
        <mxCell id="SU5YoAeH8gdzdMv7ccSX-32" value="" style="endArrow=none;dashed=1;html=1;dashPattern=1 3;strokeWidth=2;" parent="1" edge="1">
          <mxGeometry width="50" height="50" relative="1" as="geometry">
            <mxPoint x="80" y="360" as="sourcePoint" />
            <mxPoint x="400" y="360" as="targetPoint" />
          </mxGeometry>
        </mxCell>
        <mxCell id="SU5YoAeH8gdzdMv7ccSX-33" value="" style="endArrow=classic;html=1;" parent="1" edge="1">
          <mxGeometry width="50" height="50" relative="1" as="geometry">
            <mxPoint x="90" y="360" as="sourcePoint" />
            <mxPoint x="80" y="360" as="targetPoint" />
          </mxGeometry>
        </mxCell>
        <mxCell id="SU5YoAeH8gdzdMv7ccSX-34" value="" style="rounded=0;whiteSpace=wrap;html=1;rotation=90;" parent="1" vertex="1">
          <mxGeometry x="379" y="389" width="42.5" height="15" as="geometry" />
        </mxCell>
        <mxCell id="SU5YoAeH8gdzdMv7ccSX-35" value="" style="endArrow=classic;html=1;" parent="1" edge="1">
          <mxGeometry width="50" height="50" relative="1" as="geometry">
            <mxPoint x="80" y="389" as="sourcePoint" />
            <mxPoint x="390" y="389" as="targetPoint" />
          </mxGeometry>
        </mxCell>
        <mxCell id="SU5YoAeH8gdzdMv7ccSX-36" value="" style="endArrow=classic;html=1;" parent="1" edge="1">
          <mxGeometry width="50" height="50" relative="1" as="geometry">
            <mxPoint x="400" y="443" as="sourcePoint" />
            <mxPoint x="553" y="443" as="targetPoint" />
          </mxGeometry>
        </mxCell>
        <mxCell id="SU5YoAeH8gdzdMv7ccSX-37" value="" style="rounded=0;whiteSpace=wrap;html=1;rotation=90;" parent="1" vertex="1">
          <mxGeometry x="540" y="443" width="42.5" height="15" as="geometry" />
        </mxCell>
        <mxCell id="SU5YoAeH8gdzdMv7ccSX-38" value="" style="endArrow=classic;html=1;" parent="1" edge="1">
          <mxGeometry width="50" height="50" relative="1" as="geometry">
            <mxPoint x="410" y="460" as="sourcePoint" />
            <mxPoint x="400" y="460" as="targetPoint" />
          </mxGeometry>
        </mxCell>
        <mxCell id="SU5YoAeH8gdzdMv7ccSX-39" value="" style="endArrow=none;dashed=1;html=1;dashPattern=1 3;strokeWidth=2;" parent="1" edge="1">
          <mxGeometry width="50" height="50" relative="1" as="geometry">
            <mxPoint x="410" y="461" as="sourcePoint" />
            <mxPoint x="550" y="461" as="targetPoint" />
          </mxGeometry>
        </mxCell>
        <mxCell id="SU5YoAeH8gdzdMv7ccSX-40" value="" style="endArrow=none;dashed=1;html=1;dashPattern=1 3;strokeWidth=2;" parent="1" edge="1">
          <mxGeometry width="50" height="50" relative="1" as="geometry">
            <mxPoint x="81.25" y="480" as="sourcePoint" />
            <mxPoint x="401.25" y="480" as="targetPoint" />
          </mxGeometry>
        </mxCell>
        <mxCell id="SU5YoAeH8gdzdMv7ccSX-41" value="" style="endArrow=classic;html=1;" parent="1" edge="1">
          <mxGeometry width="50" height="50" relative="1" as="geometry">
            <mxPoint x="85.25" y="480" as="sourcePoint" />
            <mxPoint x="75.25" y="480" as="targetPoint" />
          </mxGeometry>
        </mxCell>
        <mxCell id="SU5YoAeH8gdzdMv7ccSX-42" value="" style="endArrow=classic;html=1;" parent="1" edge="1">
          <mxGeometry width="50" height="50" relative="1" as="geometry">
            <mxPoint x="80" y="500" as="sourcePoint" />
            <mxPoint x="90" y="540" as="targetPoint" />
            <Array as="points">
              <mxPoint x="130" y="500" />
              <mxPoint x="130" y="540" />
            </Array>
          </mxGeometry>
        </mxCell>
        <mxCell id="SU5YoAeH8gdzdMv7ccSX-43" value="" style="rounded=0;whiteSpace=wrap;html=1;rotation=90;" parent="1" vertex="1">
          <mxGeometry x="59" y="552" width="42.5" height="15" as="geometry" />
        </mxCell>
        <mxCell id="SU5YoAeH8gdzdMv7ccSX-48" value="2:viewMovie()" style="text;html=1;strokeColor=none;fillColor=none;align=center;verticalAlign=middle;whiteSpace=wrap;rounded=0;" parent="1" vertex="1">
          <mxGeometry x="140" y="170" width="60" height="20" as="geometry" />
        </mxCell>
        <mxCell id="SU5YoAeH8gdzdMv7ccSX-49" value="3:viewMovie()" style="text;html=1;strokeColor=none;fillColor=none;align=center;verticalAlign=middle;whiteSpace=wrap;rounded=0;" parent="1" vertex="1">
          <mxGeometry x="140" y="220" width="60" height="20" as="geometry" />
        </mxCell>
        <mxCell id="SU5YoAeH8gdzdMv7ccSX-50" value="4:BookTicket()" style="text;html=1;strokeColor=none;fillColor=none;align=center;verticalAlign=middle;whiteSpace=wrap;rounded=0;" parent="1" vertex="1">
          <mxGeometry x="300" y="230" width="60" height="20" as="geometry" />
        </mxCell>
        <mxCell id="SU5YoAeH8gdzdMv7ccSX-51" value="5:MakePayment()" style="text;html=1;strokeColor=none;fillColor=none;align=center;verticalAlign=middle;whiteSpace=wrap;rounded=0;" parent="1" vertex="1">
          <mxGeometry x="460" y="281" width="60" height="20" as="geometry" />
        </mxCell>
        <mxCell id="SU5YoAeH8gdzdMv7ccSX-52" value="6:Confirmation" style="text;html=1;strokeColor=none;fillColor=none;align=center;verticalAlign=middle;whiteSpace=wrap;rounded=0;" parent="1" vertex="1">
          <mxGeometry x="460" y="320" width="60" height="20" as="geometry" />
        </mxCell>
        <mxCell id="SU5YoAeH8gdzdMv7ccSX-53" value="7:return TicketDetails" style="text;html=1;strokeColor=none;fillColor=none;align=center;verticalAlign=middle;whiteSpace=wrap;rounded=0;" parent="1" vertex="1">
          <mxGeometry x="250" y="342" width="123" height="20" as="geometry" />
        </mxCell>
        <mxCell id="SU5YoAeH8gdzdMv7ccSX-54" value="8:CancelTickets()" style="text;html=1;strokeColor=none;fillColor=none;align=center;verticalAlign=middle;whiteSpace=wrap;rounded=0;" parent="1" vertex="1">
          <mxGeometry x="290" y="389" width="60" height="20" as="geometry" />
        </mxCell>
        <mxCell id="SU5YoAeH8gdzdMv7ccSX-55" value="9:ReturnPaypemt()" style="text;html=1;strokeColor=none;fillColor=none;align=center;verticalAlign=middle;whiteSpace=wrap;rounded=0;" parent="1" vertex="1">
          <mxGeometry x="450" y="423" width="60" height="20" as="geometry" />
        </mxCell>
        <mxCell id="SU5YoAeH8gdzdMv7ccSX-56" value="10:return Payment" style="text;html=1;strokeColor=none;fillColor=none;align=center;verticalAlign=middle;whiteSpace=wrap;rounded=0;" parent="1" vertex="1">
          <mxGeometry x="426" y="463" width="101" height="20" as="geometry" />
        </mxCell>
        <mxCell id="SU5YoAeH8gdzdMv7ccSX-57" value="11:return Payment" style="text;html=1;strokeColor=none;fillColor=none;align=center;verticalAlign=middle;whiteSpace=wrap;rounded=0;" parent="1" vertex="1">
          <mxGeometry x="250" y="460" width="130" height="20" as="geometry" />
        </mxCell>
        <mxCell id="SU5YoAeH8gdzdMv7ccSX-58" value="12:logout()" style="text;html=1;strokeColor=none;fillColor=none;align=center;verticalAlign=middle;whiteSpace=wrap;rounded=0;" parent="1" vertex="1">
          <mxGeometry x="133" y="504" width="60" height="20" as="geometry" />
        </mxCell>
      </root>
    </mxGraphModel>
  </diagram>
</mxfile>
